<svg width="900" height="450" xmlns="http://www.w3.org/2000/svg" version="1.1">
 <defs>
  <linearGradient id="svg_7" x1="0" y1="0" x2="1" y2="0" spreadMethod="pad">
   <stop stop-color="#051933" offset="0" stop-opacity="0.99609"/>
   <stop stop-color="#0b3b78" stop-opacity="0.99609" offset="1"/>
  </linearGradient>
 </defs>
 <g>
  <title>Layer 1</title>
  <rect width="900" height="450" fill="url(#svg_7)" id="svg_1" stroke="url(#gradbox_stroke)" stroke-opacity="0" y="-7" x="0"/>
  <path d="m0,412l16.7,-1.5c16.6,-1.5 50,-4.5 83.3,-3.3c33.3,1.1 66.7,6.5 100,11c33.3,4.5 66.7,8.1 100,11.5c33.3,3.3 66.7,6.3 100,4.3c33.3,-2 66.7,-9 100,-11.3c33.3,-2.4 66.7,0 100,-1.2c33.3,-1.2 66.7,-5.8 100,-12.3c33.3,-6.5 66.7,-14.9 100,-14.9c33.3,0 66.7,8.4 83.3,12.5l16.7,4.2l0,40l-16.7,0c-16.6,0 -50,0 -83.3,0c-33.3,0 -66.7,0 -100,0c-33.3,0 -66.7,0 -100,0c-33.3,0 -66.7,0 -100,0c-33.3,0 -66.7,0 -100,0c-33.3,0 -66.7,0 -100,0c-33.3,0 -66.7,0 -100,0c-33.3,0 -66.7,0 -100,0c-33.3,0 -66.7,0 -83.3,0l-16.7,0l0,-39z" fill="#FFFFFF" stroke-linecap="round" id="svg_2"/>
 </g>
</svg>